<?xml version="1.0" encoding="utf-8"?>
<!-- This file is generated by build:icons -->
<svg xmlns="http://www.w3.org/2000/svg" xmlns:xlink="http://www.w3.org/1999/xlink" width="0" height="0">
<defs>
<symbol id="check"><path d="M9 15.59 4.71 11.3 3.3 12.71l5 5c.2.2.45.29.71.29s.51-.1.71-.29l11-11-1.41-1.41L9.02 15.59Z"/></symbol>
<symbol id="chevron-right"><path d="m9.71 17.71 5.7-5.71-5.7-5.71-1.42 1.42 4.3 4.29-4.3 4.29z"/></symbol>
<symbol id="circle"><path d="M12 2C6.49 2 2 6.49 2 12s4.49 10 10 10 10-4.49 10-10S17.51 2 12 2m0 18c-4.41 0-8-3.59-8-8s3.59-8 8-8 8 3.59 8 8-3.59 8-8 8"/></symbol>
<symbol id="cloud-download-outline"><path d="M18.948 11.112C18.511 7.67 15.563 5 12.004 5c-2.756 0-5.15 1.611-6.243 4.15-2.148.642-3.757 2.67-3.757 4.85 0 2.757 2.243 5 5 5h1v-2h-1c-1.654 0-3-1.346-3-3 0-1.404 1.199-2.757 2.673-3.016l.581-.102.192-.558C8.153 8.273 9.898 7 12.004 7c2.757 0 5 2.243 5 5v1h1c1.103 0 2 .897 2 2s-.897 2-2 2h-2v2h2c2.206 0 4-1.794 4-4a4.01 4.01 0 0 0-3.056-3.888"/><path d="M13.004 14v-4h-2v4h-3l4 5 4-5z"/></symbol>
<symbol id="copy-check"><path d="M20 2H10c-1.1 0-2 .9-2 2v10c0 1.1.9 2 2 2h10c1.1 0 2-.9 2-2V4c0-1.1-.9-2-2-2m0 12H10V4h10z"/><path d="M14 20H4V10h2V8H4c-1.1 0-2 .9-2 2v10c0 1.1.9 2 2 2h10c1.1 0 2-.9 2-2v-2h-2zm4.71-12.29-1.42-1.42L14 9.59l-1.29-1.3-1.42 1.42 2.71 2.7z"/></symbol>
<symbol id="copy"><path d="M20 2H10c-1.1 0-2 .9-2 2v10c0 1.1.9 2 2 2h10c1.1 0 2-.9 2-2V4c0-1.1-.9-2-2-2m0 12H10V4h10z"/><path d="M14 20H4V10h2V8H4c-1.1 0-2 .9-2 2v10c0 1.1.9 2 2 2h10c1.1 0 2-.9 2-2v-2h-2z"/></symbol>
<symbol id="dashed-circle"><path d="M19.77 10.1c.15.62.23 1.26.23 1.9s-.08 1.28-.23 1.9l1.94.47c.19-.77.28-1.57.28-2.37s-.1-1.6-.28-2.37zM16.29 18.75l1.07 1.69c1.35-.86 2.48-2.04 3.29-3.42l-1.73-1.01a8.1 8.1 0 0 1-2.63 2.74M18.92 7.98l1.73-1.01a10.06 10.06 0 0 0-3.29-3.42l-1.07 1.69c1.08.69 1.99 1.63 2.63 2.74M12 4c.75 0 1.49.1 2.2.31l.55-1.92c-.89-.25-1.81-.38-2.75-.38C6.49 2 2 6.49 2 12s4.49 10 10 10c.93 0 1.86-.13 2.75-.38l-.55-1.92c-.71.2-1.45.31-2.2.31-4.41 0-8-3.59-8-8S7.59 4 12 4" class="b"/></symbol>
<symbol id="facebook"><path fill-rule="evenodd" d="M14.315 23.5H9.437V11.999H7V8.035h2.437v-2.38C9.437 2.423 10.813.5 14.723.5h3.255v3.964h-2.035c-1.522 0-1.622.554-1.622 1.588l-.007 1.984H18l-.431 3.963h-3.255z" clip-rule="evenodd"/></symbol>
<symbol id="folder-outline"><path d="M20 5h-8.586L9.707 3.293A1 1 0 0 0 9 3H4c-1.103 0-2 .897-2 2v14c0 1.103.897 2 2 2h16c1.103 0 2-.897 2-2V7c0-1.103-.897-2-2-2M4 19V7h16l.002 12z"/></symbol>
<symbol id="home-outline"><path d="M12.71 2.29a1 1 0 0 0-1.42 0l-9 9a1 1 0 0 0 0 1.42A1 1 0 0 0 3 13h1v7a2 2 0 0 0 2 2h12a2 2 0 0 0 2-2v-7h1a1 1 0 0 0 1-1 1 1 0 0 0-.29-.71zM6 20v-9.59l6-6 6 6V20z"/></symbol>
<symbol id="loading-outline"><path d="M12 22c5.421 0 10-4.579 10-10h-2c0 4.337-3.663 8-8 8s-8-3.663-8-8 3.663-8 8-8V2C6.579 2 2 6.58 2 12c0 5.421 4.579 10 10 10"/></symbol>
<symbol id="moon"><path d="M12.2 22c4.53 0 8.45-2.91 9.76-7.24a1.002 1.002 0 0 0-1.25-1.25c-.78.23-1.58.35-2.38.35-4.52 0-8.2-3.68-8.2-8.2 0-.8.12-1.6.35-2.38.11-.35.01-.74-.25-1s-.64-.36-1-.25A10.17 10.17 0 0 0 2 11.8C2 17.42 6.57 22 12.2 22M8.18 4.65c-.03.34-.05.68-.05 1.02 0 5.62 4.57 10.2 10.2 10.2.34 0 .68-.02 1.02-.05C17.93 18.38 15.23 20 12.2 20 7.68 20 4 16.32 4 11.8a8.15 8.15 0 0 1 4.18-7.15"/></symbol>
<symbol id="search-outline"><path d="M10 18a7.95 7.95 0 0 0 4.897-1.688l4.396 4.396 1.414-1.414-4.396-4.396A7.95 7.95 0 0 0 18 10c0-4.411-3.589-8-8-8s-8 3.589-8 8 3.589 8 8 8m0-14c3.309 0 6 2.691 6 6s-2.691 6-6 6-6-2.691-6-6 2.691-6 6-6"/></symbol>
<symbol id="sun"><path d="M12 17.01c2.76 0 5.01-2.25 5.01-5.01S14.76 6.99 12 6.99 6.99 9.24 6.99 12s2.25 5.01 5.01 5.01M12 9c1.66 0 3.01 1.35 3.01 3.01s-1.35 3.01-3.01 3.01-3.01-1.35-3.01-3.01S10.34 9 12 9m1 10h-2v3h2zm0-17h-2v3h2zM2 11h3v2H2zm17 0h3v2h-3zM4.22 18.36l.71.71.71.71 1.06-1.06 1.06-1.06-.71-.71-.71-.71-1.06 1.06zM19.78 5.64l-.71-.71-.71-.71-1.06 1.06-1.06 1.06.71.71.71.71 1.06-1.06zm-12.02.7L6.7 5.28 5.64 4.22l-.71.71-.71.71L5.28 6.7l1.06 1.06.71-.71zm8.48 11.32 1.06 1.06 1.06 1.06.71-.71.71-.71-1.06-1.06-1.06-1.06-.71.71z"/></symbol>
<symbol id="user-outline"><path d="M12 2a5 5 0 1 0 5 5 5 5 0 0 0-5-5m0 8a3 3 0 1 1 3-3 3 3 0 0 1-3 3m9 11v-1a7 7 0 0 0-7-7h-4a7 7 0 0 0-7 7v1h2v-1a5 5 0 0 1 5-5h4a5 5 0 0 1 5 5v1z"/></symbol>
</defs>
</svg>
