<svg width="387" height="125" viewBox="0 0 387 125" fill="none" xmlns="http://www.w3.org/2000/svg">
<path fill-rule="evenodd" clip-rule="evenodd" d="M93.346 0.0120114L86.432 0.443011L86.971 14.82C86.999 15.615 86.082 16.079 85.457 15.586L80.827 11.936L75.342 16.098C75.2008 16.2053 75.0319 16.2701 74.8552 16.2849C74.6785 16.2997 74.5012 16.2639 74.344 16.1817C74.1869 16.0995 74.0564 15.9742 73.9679 15.8205C73.8793 15.6669 73.8364 15.4912 73.844 15.314L74.461 1.19101L5.87299 5.48001C4.24144 5.58167 2.71427 6.31711 1.61753 7.52932C0.520782 8.74153 -0.0586297 10.3345 0.00299165 11.968L3.86299 114.806C3.92192 116.377 4.5696 117.869 5.67743 118.985C6.78526 120.1 8.27221 120.759 9.84299 120.829L93.455 124.583C94.3002 124.621 95.1443 124.487 95.9364 124.189C96.7285 123.892 97.4522 123.437 98.064 122.853C98.6753 122.268 99.162 121.566 99.4947 120.788C99.8275 120.01 99.9993 119.173 100 118.327V6.26401C100 5.40836 99.8252 4.56173 99.4855 3.7764C99.1459 2.99106 98.6488 2.28371 98.025 1.69801C97.4016 1.11221 96.6649 0.660376 95.8601 0.370396C95.0554 0.0804171 94.1997 -0.0415539 93.346 0.0120114ZM51.886 21.199C68.194 21.199 77.1 29.922 77.1 46.518C74.896 48.231 58.48 49.398 58.48 46.961C58.826 37.661 54.663 37.254 52.35 37.254C50.152 37.254 46.451 37.916 46.451 42.898C46.451 47.9744 51.8594 50.8405 58.2076 54.2046C67.226 58.9837 78.141 64.7679 78.141 79.322C78.141 93.272 66.806 100.977 52.35 100.977C37.43 100.977 24.393 94.941 25.865 74.014C26.443 71.557 45.41 72.141 45.41 74.014C45.18 82.649 47.145 85.189 52.117 85.189C55.934 85.189 57.67 83.086 57.67 79.543C57.67 74.1815 52.0346 71.0178 45.5519 67.3784C36.7742 62.4507 26.443 56.6507 26.443 43.342C26.443 30.057 35.58 21.199 51.886 21.199Z" fill="white"/>
<path d="M180 21H239.364C235.124 25.3223 231.656 30.2335 228.989 35.6667H222.9V101H204.895V35.6667H180V21Z" fill="white"/>
<path fill-rule="evenodd" clip-rule="evenodd" d="M283.471 101C277.369 101 271.709 100.006 266.489 98.0166C261.343 96.0276 256.859 93.2284 253.036 89.6188C249.287 86.0092 246.347 81.7735 244.215 76.9116C242.156 72.0498 241.127 66.7459 241.127 61C241.127 55.2542 242.156 49.9503 244.215 45.0884C246.347 40.2265 249.324 35.9908 253.147 32.3812C256.969 28.7716 261.454 25.9724 266.6 23.9834C271.746 21.9945 277.333 21 283.361 21C289.462 21 295.049 21.9945 300.122 23.9834C305.268 25.9724 309.715 28.7716 313.464 32.3812C317.287 35.9908 320.264 40.2265 322.396 45.0884C324.528 49.8766 325.594 55.1805 325.594 61C325.594 66.7459 324.528 72.0866 322.396 77.0221C320.264 81.884 317.287 86.1197 313.464 89.7293C309.715 93.2652 305.268 96.0276 300.122 98.0166C295.049 100.006 289.499 101 283.471 101ZM283.361 85.7514C286.816 85.7514 289.977 85.1621 292.844 83.9835C295.784 82.8048 298.357 81.1105 300.563 78.9006C302.768 76.6906 304.459 74.0755 305.635 71.0553C306.885 68.035 307.51 64.6833 307.51 61C307.51 57.3168 306.885 53.965 305.635 50.9448C304.459 47.9245 302.768 45.3094 300.563 43.0995C298.431 40.8895 295.895 39.1952 292.954 38.0166C290.014 36.838 286.816 36.2486 283.361 36.2486C279.905 36.2486 276.708 36.838 273.767 38.0166C270.9 39.1952 268.364 40.8895 266.159 43.0995C263.953 45.3094 262.226 47.9245 260.976 50.9448C259.8 53.965 259.211 57.3168 259.211 61C259.211 64.6096 259.8 67.9613 260.976 71.0553C262.226 74.0755 263.916 76.6906 266.048 78.9006C268.254 81.1105 270.827 82.8048 273.767 83.9835C276.708 85.1621 279.905 85.7514 283.361 85.7514Z" fill="white"/>
<path d="M337.443 35.3048L350.49 35.6667C356.047 35.6667 360.197 36.8519 362.938 39.2222C365.679 41.5926 367.05 44.9259 367.05 49.2222C367.05 53.4445 365.679 56.7778 362.938 59.2222C360.197 61.5926 356.047 62.7778 350.49 62.7778H343.588L352.458 77.1111H352.47L367.272 101H387L368.973 74.0041C369.048 73.9723 369.123 73.9402 369.197 73.9079C369.297 73.8649 369.396 73.8216 369.495 73.7778C374.534 71.5556 378.424 68.3704 381.165 64.2222C383.906 60 385.277 55 385.277 49.2222C385.277 43.3704 383.906 38.3333 381.165 34.1111C378.424 29.8889 374.534 26.6667 369.495 24.4445C364.457 22.1482 358.455 21 351.491 21H327.248C331.393 25.2261 334.801 30.0152 337.443 35.3048Z" fill="white"/>
<path d="M160 61H120V69H160V61Z" fill="white"/>
</svg>
